<svg width="36" height="35" viewBox="0 0 36 35" fill="none" xmlns="http://www.w3.org/2000/svg">
<path d="M30.7315 1.2963H5.26852C3.3588 1.2963 1.7963 2.8588 1.7963 4.76852V30.2315C1.7963 32.1412 3.3588 33.7037 5.26852 33.7037H30.7315C32.6412 33.7037 34.2037 32.1412 34.2037 30.2315V4.76852C34.2037 2.8588 32.6412 1.2963 30.7315 1.2963ZM11.0556 26.7593C11.0556 27.3958 10.5347 27.9167 9.89815 27.9167H8.74074C8.10417 27.9167 7.58333 27.3958 7.58333 26.7593V20.3935C7.58333 19.7569 8.10417 19.2361 8.74074 19.2361H9.89815C10.5347 19.2361 11.0556 19.7569 11.0556 20.3935V26.7593ZM16.8426 26.7593C16.8426 27.3958 16.3218 27.9167 15.6852 27.9167H14.5278C13.8912 27.9167 13.3704 27.3958 13.3704 26.7593V11.713C13.3704 11.0764 13.8912 10.5556 14.5278 10.5556H15.6852C16.3218 10.5556 16.8426 11.0764 16.8426 11.713V26.7593ZM22.6296 26.7593C22.6296 27.3958 22.1088 27.9167 21.4722 27.9167H20.3148C19.6782 27.9167 19.1574 27.3958 19.1574 26.7593V8.24074C19.1574 7.60417 19.6782 7.08333 20.3148 7.08333H21.4722C22.1088 7.08333 22.6296 7.60417 22.6296 8.24074V26.7593ZM28.4167 26.7593C28.4167 27.3958 27.8958 27.9167 27.2593 27.9167H26.1019C25.4653 27.9167 24.9444 27.3958 24.9444 26.7593V15.7639C24.9444 15.1273 25.4653 14.6065 26.1019 14.6065H27.2593C27.8958 14.6065 28.4167 15.1273 28.4167 15.7639V26.7593Z" fill="#FFA800"/>
</svg>
