<svg width="36" height="35" viewBox="0 0 36 35" fill="none" xmlns="http://www.w3.org/2000/svg">
<path fill-rule="evenodd" clip-rule="evenodd" d="M18 14.5811C19.6064 14.5811 20.9189 15.8936 20.9189 17.5C20.9189 19.1064 19.6064 20.4189 18 20.4189C16.3936 20.4189 15.0811 19.1064 15.0811 17.5C15.0811 15.8936 16.3936 14.5811 18 14.5811ZM18 13.125C15.6689 13.125 13.625 15.0186 13.625 17.5C13.625 19.9814 15.5186 21.875 18 21.875C20.4814 21.875 22.375 19.9814 22.375 17.5C22.375 15.0186 20.4814 13.125 18 13.125Z" fill="#FFA800"/>
<path fill-rule="evenodd" clip-rule="evenodd" d="M24.5 11V24H11.5V11H24.5ZM26.75 8.75H9.25V26.25H26.75V8.75Z" fill="#FFA800"/>
<path fill-rule="evenodd" clip-rule="evenodd" d="M16.5439 7.29395H15.0879V3.0625C15.0879 2.1875 14.3564 1.45605 13.4814 1.45605C12.6064 1.45605 12.1689 2.33105 12.1689 3.0625V7.29395H10.7129V3.0625C10.7129 1.3125 11.8818 0 13.4814 0H13.625C15.2314 0 16.5439 1.45605 16.5439 3.0625V7.29395Z" fill="#FFA800"/>
<path fill-rule="evenodd" clip-rule="evenodd" d="M25.2939 7.29395H23.8379V3.0625C23.8379 2.1875 23.1064 1.45605 22.2314 1.45605C21.3564 1.45605 20.9189 2.33105 20.9189 3.0625V7.29395H19.4629V3.0625C19.4629 1.3125 20.6318 0 22.2314 0H22.375C23.9814 0 25.2939 1.45605 25.2939 3.0625V7.29395Z" fill="#FFA800"/>
<path fill-rule="evenodd" clip-rule="evenodd" d="M22.5186 35C22.5186 35 22.375 35 22.5186 35C20.7686 35 19.4561 33.5439 19.4561 31.9375V27.7061H20.9121V31.9375C20.9121 32.8125 21.6436 33.5439 22.5186 33.5439C23.5371 33.5439 23.8311 32.6689 23.8311 31.9375V27.7061H25.2871V31.9375C25.2939 33.6875 24.125 35 22.5186 35Z" fill="#FFA800"/>
<path fill-rule="evenodd" clip-rule="evenodd" d="M13.7686 35C13.7686 35 13.625 35 13.7686 35C12.0186 35 10.7061 33.5439 10.7061 31.9375V27.7061H12.1621V31.9375C12.1621 32.8125 12.8936 33.5439 13.7686 33.5439C14.7871 33.5439 15.0811 32.6689 15.0811 31.9375V27.7061H16.5371V31.9375C16.5439 33.6875 15.375 35 13.7686 35Z" fill="#FFA800"/>
<path fill-rule="evenodd" clip-rule="evenodd" d="M7.79395 24.7939H3.5625C1.8125 24.7939 0.5 23.625 0.5 22.0186C0.5 20.4121 1.95605 19.0996 3.5625 19.0996H7.79395V20.5557H3.5625C2.6875 20.4121 1.95605 21.1367 1.95605 22.0117C1.95605 22.8867 2.83105 23.3242 3.5625 23.3242H7.79395V24.7939Z" fill="#FFA800"/>
<path fill-rule="evenodd" clip-rule="evenodd" d="M7.79395 16.0439H3.5625C1.8125 16.0439 0.5 14.875 0.5 13.2686C0.5 11.6621 1.95605 10.3496 3.5625 10.3496H7.79395V11.8057H3.5625C2.6875 11.6621 1.95605 12.3867 1.95605 13.2617C1.95605 14.1367 2.83105 14.5742 3.5625 14.5742H7.79395V16.0439Z" fill="#FFA800"/>
<path fill-rule="evenodd" clip-rule="evenodd" d="M32.4375 16.0439H28.2061V14.5879H32.4375C33.3125 14.5879 34.0439 14.0068 34.0439 13.1318C34.0439 12.1133 33.1689 11.6758 32.4375 11.6758H28.2061V10.2197H32.4375C34.1875 10.2197 35.5 11.3887 35.5 12.9883C35.5 14.7314 34.0439 16.0439 32.4375 16.0439Z" fill="#FFA800"/>
<path fill-rule="evenodd" clip-rule="evenodd" d="M32.4375 24.7939H28.2061V23.3379H32.4375C33.3125 23.3379 34.0439 22.6064 34.0439 21.7314C34.0439 20.7129 33.1689 20.4189 32.4375 20.4189H28.2061V18.9629H32.4375C34.1875 18.9629 35.5 20.1318 35.5 21.7314C35.5 23.4814 34.0439 24.7939 32.4375 24.7939Z" fill="#FFA800"/>
</svg>
