<svg width="36" height="35" viewBox="0 0 36 35" fill="none" xmlns="http://www.w3.org/2000/svg">
<g clip-path="url(#clip0_4_203)">
<path d="M34.9125 15.9326L29.6081 10.6282V4.5007C29.6081 3.39277 28.7103 2.49487 27.6007 2.49487C26.4937 2.49487 25.5959 3.39277 25.5959 4.5007V6.61604L21.6463 2.66634C19.6936 0.714698 16.2985 0.71816 14.3503 2.66987L1.08724 15.9326C0.304294 16.7171 0.304294 17.9865 1.08724 18.7698C1.87054 19.5541 3.14239 19.5541 3.9254 18.7698L17.1872 5.50669C17.6192 5.07693 18.3807 5.07693 18.8104 5.50542L32.0744 18.7698C32.4678 19.162 32.9805 19.357 33.4932 19.357C34.0069 19.357 34.5205 19.1618 34.9126 18.7698C35.6958 17.9866 35.6958 16.7172 34.9125 15.9326Z" fill="#FFA800"/>
<path d="M18.6967 9.31425C18.3114 8.92913 17.6875 8.92913 17.3033 9.31425L5.63712 20.977C5.45293 21.1611 5.34851 21.4125 5.34851 21.6748V30.1812C5.34851 32.1772 6.96697 33.7956 8.96298 33.7956H14.7389V24.8506H21.2599V33.7956H27.0359C29.0318 33.7956 30.6503 32.1772 30.6503 30.1812V21.6748C30.6503 21.4125 30.5468 21.1611 30.3617 20.977L18.6967 9.31425Z" fill="#FFA800"/>
</g>
<defs>
<clipPath id="clip0_4_203">
<rect width="35" height="35" fill="white" transform="translate(0.5)"/>
</clipPath>
</defs>
</svg>
