<svg width="36" height="35" viewBox="0 0 36 35" fill="none" xmlns="http://www.w3.org/2000/svg">
<path d="M18.539 29.7675L17.2755 30.555V18.5255L27.856 11.7845V16.8455C28.8255 16.9995 29.746 17.311 30.586 17.752V9.142L16.208 0.35L1.83002 9.1385V25.949L16.208 34.65L20.345 32.1475C19.617 31.465 19.0045 30.66 18.539 29.7675ZM14.885 30.555L4.30452 23.9855V11.781L14.885 18.5255V30.555ZM5.62752 9.31L16.208 3.85L26.4875 9.737L16.208 15.8795L5.62752 9.31Z" fill="#FFA800"/>
<path d="M26.449 17.927C22.186 17.927 18.728 21.385 18.728 25.648C18.728 29.911 22.186 33.369 26.449 33.369C30.712 33.369 34.17 29.911 34.17 25.648C34.17 21.385 30.712 17.927 26.449 17.927ZM31.1845 26.7575H27.5585V30.3835H25.3395V26.7575H21.7135V24.5385H25.3395V20.9125H27.5585V24.5385H31.1845V26.7575Z" fill="#FFA800"/>
</svg>
