<svg width="36" height="35" viewBox="0 0 36 35" fill="none" xmlns="http://www.w3.org/2000/svg">
<path d="M29.5186 14.7998H28.4795C27.6318 14.7998 26.9209 14.0684 26.9209 13.2002C26.9209 12.7627 27.1055 12.3662 27.4336 12.0723L28.1035 11.416C28.7666 10.7598 28.7666 9.68652 28.1035 9.03027L26.5791 7.51953C26.2783 7.21875 25.834 7.04102 25.3828 7.04102C24.9316 7.04102 24.4941 7.21875 24.1865 7.51953L23.5439 8.16211C23.2363 8.50391 22.8262 8.68848 22.3818 8.68848C21.5068 8.68848 20.7754 7.97754 20.7754 7.13672V6.09082C20.7754 5.16797 20.0303 4.375 19.1006 4.375H17.0225C16.0928 4.375 15.3545 5.16113 15.3545 6.09082V7.12988C15.3545 7.9707 14.623 8.68164 13.748 8.68164C13.3105 8.68164 12.9072 8.49707 12.6133 8.17578L11.9502 7.51953C11.6494 7.21191 11.2051 7.04102 10.7539 7.04102C10.3027 7.04102 9.86523 7.21875 9.55762 7.51953L8.01953 9.02344C7.36328 9.67969 7.36328 10.7529 8.01953 11.4023L8.66211 12.0449C9.00391 12.3525 9.19531 12.7627 9.19531 13.2002C9.19531 14.0752 8.48438 14.7998 7.63672 14.7998H6.59766C5.66113 14.7998 4.875 15.5313 4.875 16.4609V17.5V18.5391C4.875 19.4619 5.66113 20.2002 6.59766 20.2002H7.63672C8.48438 20.2002 9.19531 20.9316 9.19531 21.7998C9.19531 22.2373 9.00391 22.6475 8.66211 22.9551L8.01953 23.5908C7.36328 24.2471 7.36328 25.3203 8.01953 25.9697L9.54395 27.4873C9.84473 27.7949 10.2891 27.9658 10.7402 27.9658C11.1914 27.9658 11.6289 27.7881 11.9365 27.4873L12.5996 26.8311C12.8867 26.5098 13.2969 26.3252 13.7344 26.3252C14.6094 26.3252 15.3408 27.0361 15.3408 27.877V28.916C15.3408 29.8389 16.0791 30.6318 17.0156 30.6318H19.0938C20.0234 30.6318 20.7617 29.8457 20.7617 28.916V27.877C20.7617 27.0361 21.4932 26.3252 22.3682 26.3252C22.8057 26.3252 23.2158 26.5166 23.5303 26.8516L24.1729 27.4941C24.4805 27.7949 24.918 27.9727 25.3691 27.9727C25.8203 27.9727 26.2578 27.7949 26.5654 27.4941L28.0898 25.9766C28.7461 25.3203 28.7461 24.2471 28.0898 23.5908L27.4199 22.9346C27.0918 22.6406 26.9072 22.2373 26.9072 21.8066C26.9072 20.9316 27.6182 20.207 28.4658 20.207H29.5049C30.4346 20.207 31.0977 19.4756 31.0977 18.5459V17.5V16.4609C31.1113 15.5313 30.4482 14.7998 29.5186 14.7998ZM23.5234 17.5C23.5234 20.5146 21.083 22.9688 18.0547 22.9688C15.0264 22.9688 12.5859 20.5146 12.5859 17.5C12.5859 14.4854 15.0264 12.0312 18.0547 12.0312C21.083 12.0312 23.5234 14.4854 23.5234 17.5Z" fill="#FFA800"/>
</svg>
